<?xml version="1.0" standalone="no"?>
<!DOCTYPE svg PUBLIC "-//W3C//DTD SVG 20010904//EN"
 "http://www.w3.org/TR/2001/REC-SVG-20010904/DTD/svg10.dtd">
<svg version="1.0" xmlns="http://www.w3.org/2000/svg"
 width="400.000000pt" height="400.000000pt" viewBox="0 0 400.000000 400.000000"
 preserveAspectRatio="xMidYMid meet">
<metadata>
Created by potrace 1.11, written by Peter Selinger 2001-2013
</metadata>
<g transform="translate(0.000000,400.000000) scale(0.100000,-0.100000)"
fill="#000000" stroke="none">
<path d="M2099 3907 c-2 -3 -30 -7 -61 -11 -349 -36 -694 -223 -919 -498 -24
-29 -46 -55 -49 -58 -3 -3 -26 -36 -51 -75 -172 -261 -281 -594 -316 -960 -16
-159 -8 -581 11 -682 3 -11 8 -43 12 -70 3 -26 8 -55 10 -63 118 -595 413
-1030 844 -1245 143 -72 260 -107 441 -134 97 -15 390 -7 484 13 259 55 467
172 689 389 l111 107 -57 57 -57 57 -93 -90 c-202 -192 -374 -294 -588 -346
-114 -28 -388 -34 -505 -12 -44 8 -93 18 -110 21 -85 15 -332 132 -383 180 -7
7 -18 13 -23 13 -5 0 -58 48 -118 108 -273 269 -432 653 -481 1157 -8 84 -5
512 4 555 2 14 10 61 16 105 20 141 65 324 100 410 4 11 20 52 36 90 137 344
399 614 708 730 81 30 198 61 262 69 27 4 65 9 84 11 49 7 236 7 290 0 157
-21 317 -82 451 -173 79 -53 92 -64 181 -151 l58 -55 54 59 54 59 -21 26 c-75
90 -266 229 -412 300 -155 75 -274 101 -481 106 -93 3 -172 3 -175 1z"/>
</g>
</svg>
