<?xml version="1.0" standalone="no"?>
<!DOCTYPE svg PUBLIC "-//W3C//DTD SVG 20010904//EN"
 "http://www.w3.org/TR/2001/REC-SVG-20010904/DTD/svg10.dtd">
<svg version="1.0" xmlns="http://www.w3.org/2000/svg"
 width="512.000000pt" height="512.000000pt" viewBox="0 0 512.000000 512.000000"
 preserveAspectRatio="xMidYMid meet">
<metadata>
Created by potrace 1.11, written by Peter Selinger 2001-2013
</metadata>
<g transform="translate(0.000000,512.000000) scale(0.100000,-0.100000)"
fill="#000000" stroke="none">
<path d="M0 2560 l0 -2560 2560 0 2560 0 0 2560 0 2560 -2560 0 -2560 0 0
-2560z m3042 1312 c133 -36 341 -153 453 -255 l48 -43 -158 -177 c-86 -97
-159 -177 -161 -177 -2 0 -32 21 -66 46 -134 99 -223 129 -378 129 -94 0 -127
-4 -182 -23 -311 -107 -488 -472 -449 -923 29 -334 160 -560 386 -664 89 -42
154 -55 263 -55 162 0 282 53 420 184 l42 40 29 -29 c61 -63 291 -320 291
-326 0 -13 -160 -158 -220 -199 -189 -129 -428 -191 -670 -175 -576 37 -986
391 -1109 959 -63 291 -41 666 56 926 147 398 430 657 824 754 142 34 142 34
334 31 134 -2 186 -7 247 -23z"/>
</g>
</svg>
