<svg width="48" height="48" viewBox="0 0 48 48" fill="none" xmlns="http://www.w3.org/2000/svg">
<path d="M23.1218 41.1892C23.6688 41.5007 24.3312 41.5007 24.8782 41.1892C27.8483 39.4974 37.3333 33.4343 37.3333 25V14.7193C37.3333 13.8856 36.8162 13.1394 36.0356 12.8467L24.7023 8.59666C24.2495 8.42687 23.7505 8.42687 23.2978 8.59666L11.9644 12.8467C11.1838 13.1394 10.6667 13.8856 10.6667 14.7193V25C10.6667 33.4343 20.1517 39.4974 23.1218 41.1892Z" stroke="#21BCEC" stroke-width="2" stroke-linecap="round" stroke-linejoin="round"/>
<path d="M23.0669 35.4231C23.6381 35.801 24.3619 35.801 24.9331 35.4231C27.0433 34.0271 32 30.1951 32 25V18.6385C32 17.8285 31.5114 17.0985 30.7627 16.7896L24.7627 14.3146C24.2742 14.1131 23.7258 14.1131 23.2373 14.3146L17.2373 16.7896C16.4886 17.0985 16 17.8285 16 18.6385V25C16 30.1951 20.9567 34.0271 23.0669 35.4231Z" fill="#007EBE"/>
</svg>
