<svg width="48" height="48" viewBox="0 0 48 48" fill="none" xmlns="http://www.w3.org/2000/svg">
<path fill-rule="evenodd" clip-rule="evenodd" d="M15 21.2045C15 21.6701 15.3214 22.0742 15.7751 22.1789L17.8197 22.6507C18.1732 22.7323 18.4509 23.0003 18.5722 23.3422C18.6885 23.6705 18.8216 23.9909 18.9703 24.3024C19.1266 24.6299 19.1198 25.016 18.9274 25.3237L17.815 27.1036C17.5682 27.4984 17.6266 28.0114 17.9559 28.3407L19.6593 30.0441C19.9886 30.3733 20.5015 30.4318 20.8964 30.185L22.6763 29.0725C22.984 28.8802 23.3701 28.8734 23.6976 29.0297C24.0091 29.1784 24.3295 29.3115 24.6578 29.4278C24.9997 29.5491 25.2677 29.8268 25.3493 30.1803L25.8211 32.2249C25.9258 32.6786 26.3299 33 26.7955 33L29.2045 33C29.6701 33 30.0742 32.6786 30.1789 32.2249L30.6507 30.1803C30.7323 29.8268 31.0003 29.5491 31.3422 29.4278C31.6705 29.3115 31.9909 29.1784 32.3024 29.0297C32.6299 28.8734 33.016 28.8802 33.3237 29.0725L35.1036 30.185C35.4985 30.4318 36.0114 30.3734 36.3407 30.0441L38.0441 28.3407C38.3734 28.0114 38.4318 27.4984 38.185 27.1036L37.0726 25.3237C36.8802 25.0159 36.8734 24.6299 37.0297 24.3024C37.1784 23.9909 37.3115 23.6705 37.4278 23.3422C37.5491 23.0003 37.8268 22.7323 38.1803 22.6507L40.2249 22.1789C40.6786 22.0742 41 21.6701 41 21.2045L41 18.7955C41 18.3299 40.6786 17.9258 40.2249 17.8211L38.1803 17.3493C37.8268 17.2677 37.5491 16.9997 37.4278 16.6578C37.3115 16.3295 37.1784 16.0091 37.0297 15.6976C36.8734 15.3701 36.8802 14.984 37.0726 14.6763L38.185 12.8964C38.4318 12.5015 38.3734 11.9886 38.0441 11.6593L36.3407 9.9559C36.0114 9.62663 35.4985 9.56821 35.1036 9.81501L33.3237 10.9274C33.016 11.1198 32.6299 11.1266 32.3024 10.9703C31.9909 10.8216 31.6705 10.6885 31.3422 10.5722C31.0003 10.4509 30.7323 10.1732 30.6507 9.81974L30.1789 7.77514C30.0742 7.32141 29.6701 7 29.2045 7L26.7955 7C26.3299 7 25.9258 7.32141 25.8211 7.77514L25.3493 9.81974C25.2677 10.1732 24.9997 10.4509 24.6578 10.5722C24.3295 10.6885 24.0091 10.8216 23.6976 10.9703C23.3701 11.1266 22.984 11.1198 22.6763 10.9274L20.8964 9.81501C20.5016 9.56822 19.9886 9.62664 19.6593 9.9559L17.9559 11.6593C17.6267 11.9886 17.5682 12.5015 17.815 12.8964L18.9275 14.6763C19.1198 14.984 19.1266 15.3701 18.9703 15.6976C18.8216 16.0091 18.6885 16.3295 18.5722 16.6578C18.4509 16.9997 18.1732 17.2677 17.8197 17.3493L15.7751 17.8211C15.3214 17.9258 15 18.3299 15 18.7955L15 21.2045ZM33 20C33 17.2386 30.7614 15 28 15C25.2386 15 23 17.2386 23 20C23 22.7614 25.2386 25 28 25C30.7614 25 33 22.7614 33 20Z" fill="#21BCEC"/>
<path fill-rule="evenodd" clip-rule="evenodd" d="M9.38461 35.0059L10.6154 37.1377L12.6642 36.5111C12.9954 36.8295 13.358 37.1062 13.7438 37.339L13.6688 39.4807L16.0465 40.1178L17.0524 38.2255C17.5029 38.2168 17.9553 38.1585 18.4013 38.0484L19.8623 39.6154L21.9941 38.3846L21.3675 36.3358C21.686 36.0046 21.9627 35.642 22.1955 35.2562L24.3371 35.3311L24.9742 32.9535L23.082 31.9476C23.0733 31.4971 23.015 31.0447 22.9048 30.5986L24.4718 29.1377L23.241 27.0059L21.1923 27.6325C20.8611 27.314 20.4984 27.0373 20.1126 26.8045L20.1876 24.663L17.8099 24.0259L16.804 25.918C16.3535 25.9267 15.9011 25.9851 15.4551 26.0952L13.9941 24.5282L11.8623 25.759L12.4889 27.8077C12.1705 28.1389 11.8938 28.5016 11.661 28.8874L9.51937 28.8124L8.88228 31.19L10.7745 32.1959C10.7832 32.6464 10.8415 33.0988 10.9517 33.5449L9.38461 35.0059ZM19.5929 30.5333C18.7432 29.0616 16.8614 28.5574 15.3897 29.4071C13.9181 30.2567 13.4138 32.1386 14.2635 33.6102C15.1132 35.0819 16.995 35.5861 18.4667 34.7365C19.9383 33.8868 20.4426 32.005 19.5929 30.5333Z" fill="#007EBE"/>
</svg>
