<svg width="48" height="48" viewBox="0 0 48 48" fill="none" xmlns="http://www.w3.org/2000/svg">
<g clip-path="url(#clip0_117_1459)">
<path d="M27.8627 18.449C28.0588 18.2587 28.3714 18.261 28.5646 18.4542L30.1282 20.0178C30.3215 20.2111 30.3238 20.5237 30.1334 20.7197L11.899 39.4984C11.7046 39.6986 11.384 39.701 11.1867 39.5037L9.07874 37.3957C8.88145 37.1984 8.8838 36.8778 9.08398 36.6835L27.8627 18.449Z" fill="#007EBE"/>
<rect x="32.7371" y="13.585" width="3.19674" height="0.799184" rx="0.399592" transform="rotate(45 32.7371 13.585)" fill="#007EBE"/>
<rect x="31.0417" y="14.15" width="4.7951" height="5.59429" rx="0.5" transform="rotate(45 31.0417 14.15)" fill="#21BCEC"/>
<path d="M29.9115 14.15L27.6511 16.4105C25.1081 13.8675 21.1523 9.91171 15.7838 9.06405C17.7931 7.05477 22.5651 6.80361 29.9115 14.15Z" fill="#21BCEC"/>
<path d="M34.4324 18.6709L32.172 20.9313C34.7149 23.4743 38.6707 27.4301 39.5184 32.7986C41.5276 30.7893 41.7788 26.0173 34.4324 18.6709Z" fill="#21BCEC"/>
</g>
<defs>
<clipPath id="clip0_117_1459">
<rect width="48" height="48" fill="white"/>
</clipPath>
</defs>
</svg>
