<svg width="24" height="24" viewBox="0 0 24 24" fill="none" xmlns="http://www.w3.org/2000/svg">
<g clip-path="url(#clip0_112:1459)">
<path d="M20 7.03799C19.4113 7.29932 18.7787 7.47532 18.1147 7.55466C18.7927 7.14866 19.3133 6.50532 19.558 5.73866C18.924 6.11466 18.2213 6.38799 17.4733 6.53532C16.8753 5.89732 16.0213 5.49866 15.0773 5.49866C12.958 5.49866 11.4007 7.47599 11.8793 9.52866C9.152 9.39199 6.73333 8.08532 5.114 6.09932C4.254 7.57466 4.668 9.50466 6.12933 10.482C5.592 10.4647 5.08533 10.3173 4.64333 10.0713C4.60733 11.592 5.69733 13.0147 7.276 13.3313C6.814 13.4567 6.308 13.486 5.79333 13.3873C6.21067 14.6913 7.42267 15.64 8.86 15.6667C7.48 16.7487 5.74133 17.232 4 17.0267C5.45267 17.958 7.17867 18.5013 9.032 18.5013C15.1267 18.5013 18.57 13.354 18.362 8.73732C19.0033 8.27399 19.56 7.69599 20 7.03799V7.03799Z" fill="white"/>
</g>
<defs>
<clipPath id="clip0_112:1459">
<rect width="16" height="16" fill="white" transform="translate(4 4)"/>
</clipPath>
</defs>
</svg>
